<svg xmlns="http://www.w3.org/2000/svg" viewBox="0 0 841.89 454.83"><defs><style>.cls-1{fill:#b5ccd2;}.cls-2{fill:#65a7b4;}.cls-3{fill:#20405c;}.cls-4{fill:#308392;}</style></defs><title>sea</title><g id="Calque_3" data-name="Calque 3"><path class="cls-1" d="M425.15,103.8V44.45a2.25,2.25,0,0,0-3.55-1.86c-6.41,4.49-19,8.27-31.45,8.28-12.32,0-30.13-5.14-35.68-10.84a2.27,2.27,0,0,0-3.34.12C346.19,45.72,331,51,318.23,50.87c-14.65-.16-29.37-5.17-34.23-10.61a2.23,2.23,0,0,0-3.32,0c-4.89,5.53-19.87,10.62-34.42,10.62s-29.52-5.19-34.41-10.65a2.23,2.23,0,0,0-3.32,0c-4.83,5.43-19.43,10.59-34,10.64-12.36,0-30.15-5.2-35.6-10.9a2.26,2.26,0,0,0-3.31,0c-5.22,5.58-21.65,10.86-32.87,10.86-14.66,0-29.37-5.12-34.23-10.6a2.24,2.24,0,0,0-3.33,0c-4.9,5.53-19.87,10.61-34.41,10.61S1.22,45.68-3.66,40.21A2.27,2.27,0,0,0-7,40.28l0,0a2.17,2.17,0,0,0-.55,1.48v62a2.26,2.26,0,0,0,2.26,2.26H422.89A2.26,2.26,0,0,0,425.15,103.8Z"/><path class="cls-1" d="M856.42,104.52V45.17a2.26,2.26,0,0,0-3.55-1.86c-6.42,4.5-19,8.28-31.46,8.29-12.31,0-30.13-5.14-35.67-10.84a2.28,2.28,0,0,0-3.35.12c-4.93,5.57-20.15,10.86-32.89,10.72-14.66-.16-29.37-5.18-34.23-10.62a2.24,2.24,0,0,0-3.33,0c-4.89,5.53-19.86,10.62-34.41,10.62S648,46.41,643.12,40.94a2.24,2.24,0,0,0-3.33,0c-4.82,5.44-19.43,10.6-34,10.65-12.36-.05-30.16-5.2-35.61-10.91a2.26,2.26,0,0,0-3.3.05C561.63,46.32,545.2,51.6,534,51.6c-14.65,0-29.37-5.12-34.23-10.6a2.22,2.22,0,0,0-3.33,0C491.52,46.52,476.56,51.6,462,51.6s-29.52-5.19-34.41-10.66a2.25,2.25,0,0,0-3.37.07l0,0a2.15,2.15,0,0,0-.55,1.47v62a2.27,2.27,0,0,0,2.27,2.27H854.15A2.27,2.27,0,0,0,856.42,104.52Z"/></g><g id="Calque_1" data-name="Calque 1"><path class="cls-2" d="M372.15,106.12V46.77a2.27,2.27,0,0,0-3.56-1.87c-6.41,4.5-18.95,8.28-31.45,8.29-12.32,0-30.13-5.14-35.67-10.84a2.28,2.28,0,0,0-3.35.12C293.18,48,278,53.33,265.22,53.19,250.57,53,235.86,48,231,42.57a2.25,2.25,0,0,0-3.33,0c-4.89,5.53-19.86,10.62-34.42,10.62S163.73,48,158.85,42.53a2.25,2.25,0,0,0-3.33,0c-4.83,5.44-19.43,10.6-34,10.65-12.36,0-30.16-5.2-35.61-10.91a2.27,2.27,0,0,0-3.31,0c-5.22,5.58-21.65,10.86-32.87,10.86-14.65,0-29.37-5.12-34.23-10.6a2.22,2.22,0,0,0-3.33,0C7.25,48.11-7.71,53.19-22.26,53.19S-51.79,48-56.67,42.53A2.25,2.25,0,0,0-60,42.6l0,0a2.16,2.16,0,0,0-.55,1.48v62a2.27,2.27,0,0,0,2.27,2.26H369.88A2.27,2.27,0,0,0,372.15,106.12Z"/><path class="cls-2" d="M1234.31,107.28V47.93a2.26,2.26,0,0,0-3.56-1.86c-6.41,4.49-19,8.27-31.45,8.28-12.32,0-30.13-5.14-35.68-10.84a2.27,2.27,0,0,0-3.34.12c-4.94,5.57-20.16,10.87-32.9,10.72-14.65-.16-29.37-5.17-34.23-10.61a2.23,2.23,0,0,0-3.32,0c-4.89,5.54-19.87,10.62-34.42,10.62S1025.89,49.16,1021,43.7a2.23,2.23,0,0,0-3.32,0c-4.83,5.43-19.43,10.59-34,10.64-12.36-.05-30.15-5.2-35.6-10.9a2.26,2.26,0,0,0-3.31,0c-5.22,5.58-21.65,10.86-32.87,10.86-14.66,0-29.37-5.12-34.23-10.6a2.24,2.24,0,0,0-3.33,0c-4.9,5.53-19.87,10.61-34.41,10.61s-29.53-5.19-34.41-10.65a2.26,2.26,0,0,0-3.38.06l0,0a2.17,2.17,0,0,0-.55,1.48v62a2.27,2.27,0,0,0,2.26,2.27H1232A2.27,2.27,0,0,0,1234.31,107.28Z"/><path class="cls-2" d="M802.41,106.84V47.49a2.26,2.26,0,0,0-3.55-1.86c-6.41,4.5-19,8.28-31.45,8.29-12.32,0-30.13-5.15-35.68-10.84a2.25,2.25,0,0,0-3.34.12c-4.94,5.57-20.16,10.86-32.9,10.72-14.65-.17-29.37-5.18-34.23-10.62a2.23,2.23,0,0,0-3.32,0c-4.9,5.53-19.87,10.62-34.42,10.62S594,48.72,589.11,43.26a2.24,2.24,0,0,0-3.33,0c-4.82,5.43-19.43,10.6-34,10.65C539.4,53.87,521.6,48.71,516.15,43a2.25,2.25,0,0,0-3.3.05C507.63,48.64,491.2,53.92,480,53.92c-14.66,0-29.37-5.12-34.23-10.6a2.22,2.22,0,0,0-3.33,0c-4.9,5.52-19.87,10.61-34.41,10.61s-29.53-5.2-34.41-10.66a2.27,2.27,0,0,0-3.38.06l0,0a2.2,2.2,0,0,0-.55,1.47v62a2.27,2.27,0,0,0,2.27,2.27H800.14A2.27,2.27,0,0,0,802.41,106.84Z"/></g><g id="Calque_4" data-name="Calque 4"><path class="cls-3" d="M227.36,53.58a.85.85,0,0,0,.19-.93.89.89,0,0,0-.82-.53H191.52v-.28h2.31a.88.88,0,0,0,.86-.65l15.2-2.27a.87.87,0,0,0,.75-.93.89.89,0,0,0-.92-.77l-15,.63v-.21a.86.86,0,0,0-.88-.86H176.91a.86.86,0,0,0-.88.86V51a.86.86,0,0,0,.88.85h1.22v.28h-2.74V46.86a.86.86,0,0,0-.88-.85H164V40.07a.86.86,0,0,0-.88-.86h-5.81V34a.86.86,0,0,0-.88-.85H150.8l-1.09-2.89h1.94a.85.85,0,0,0,.48-1.57V25.22a.86.86,0,0,0-.88-.86h-2.8a.87.87,0,0,0-.88.86V28.5H147V25.75a.86.86,0,0,0-.88-.85h-1V13.62a.88.88,0,0,0-1.76,0V24.9h-1a.87.87,0,0,0-.88.85V28.5h-.88a.86.86,0,1,0,0,1.71h2.25V33.1h-.69a.87.87,0,0,0-.88.85V46.5a.81.81,0,0,0-.41-.11h-.27l-3-11a.87.87,0,0,0-1-.62l-5.14.87a.87.87,0,0,0-.73.78l-.78,10h-1a.87.87,0,0,0-.88.86v.84H113.59V45h.72a.86.86,0,1,0,0-1.71h-.72v-3h.72a.86.86,0,1,0,0-1.71h-.72V29a.88.88,0,0,0-1.76,0v9.56H109a.86.86,0,1,0,0,1.71h2.81v3h-1.17a.86.86,0,1,0,0,1.71h1.17v1.49h-4.66a.86.86,0,1,0,0,1.71h4.66v0a.85.85,0,0,0-.6.81v3.12h-9a.86.86,0,0,0,.32-.65V49.34a.87.87,0,0,0-.88-.86H92.49a.87.87,0,0,0-.77.45l-.32.56-6.46-.63a.85.85,0,1,0-.18,1.7l5.73.56s0,0,0,.06l0,.08s0,.05,0,.08a.28.28,0,0,0,0,.09v.69H81a.93.93,0,0,0-.68.31.82.82,0,0,0-.18.72C80.5,55.07,82.72,64.7,87,64.7H223.34a.87.87,0,0,0,.86-.68c.22-1,.46-2.12.72-3.17l0-.12C225.8,57.26,226.78,54.14,227.36,53.58Z"/><polygon class="cls-3" points="177.79 48.49 192.95 48.49 192.95 50.13 190.64 50.13 179.01 50.13 177.79 50.13 177.79 48.49"/><rect class="cls-3" x="179.89" y="51.84" width="9.87" height="0.28"/><path class="cls-3" d="M162.25,40.92v.91h-8.4a.87.87,0,0,0-.88.86v5.16H143V38.52a.89.89,0,0,0,.72.36H148a.86.86,0,0,0,.88-.85V35.65a.86.86,0,0,0-.75-.84h2.64a.86.86,0,0,0-.75.84V38a.86.86,0,0,0,.88.85h4.26a.79.79,0,0,0,.38-.09v1.28a.87.87,0,0,0,.88.85Z"/><rect class="cls-3" x="144.64" y="36.51" width="2.5" height="0.67"/><path class="cls-3" d="M143.64,34.81a.87.87,0,0,0-.6.35v-.35Z"/><rect class="cls-3" x="151.8" y="36.51" width="2.5" height="0.67"/><path class="cls-3" d="M155.56,34.88a1.11,1.11,0,0,0-.26-.07h.26Z"/><rect class="cls-3" x="149.33" y="26.07" width="1.04" height="2.43"/><polygon class="cls-3" points="143.24 26.61 145.25 26.61 145.25 28.5 143.73 28.5 143.24 28.5 143.24 26.61"/><polygon class="cls-3" points="144.61 30.21 147.84 30.21 148.93 33.1 144.61 33.1 144.61 30.21"/><polygon class="cls-3" points="136.13 36.63 136.79 39.06 132.31 39.06 132.46 37.25 136.13 36.63"/><path class="cls-3" d="M131.66,47.36l.52-6.59h5.07l1.82,6.7a.87.87,0,0,0,.85.63H140v0h-9.08A.86.86,0,0,0,131.66,47.36Z"/><path class="cls-3" d="M113,49.85h29.17a.87.87,0,0,0,.66-.29h11a.87.87,0,0,0,.88-.86V43.54h7.52v3.32a.88.88,0,0,0,.88.86h10.5v3a.87.87,0,0,0-.81-.54h-.59a.86.86,0,1,0,0,1.71h.59a.86.86,0,0,0,.81-.54v.82H113Z"/><polygon class="cls-3" points="100.75 50.19 100.75 50.62 98.98 50.62 92.78 50.62 93.01 50.19 100.75 50.19"/><path class="cls-3" d="M225.24,53.83a40.73,40.73,0,0,0-1.85,5.92H84.06a33,33,0,0,1-2-5.92Z"/><path class="cls-3" d="M87,63c-.65,0-1.32-.59-2-1.53H223c-.14.59-.26,1.12-.35,1.53Z"/><path class="cls-3" d="M156.2,43.84h-.59a.86.86,0,1,0,0,1.71h.59a.86.86,0,1,0,0-1.71Z"/><path class="cls-3" d="M159.72,43.84h-.59a.86.86,0,1,0,0,1.71h.59a.86.86,0,1,0,0-1.71Z"/><path class="cls-3" d="M137.62,50.13H137a.86.86,0,1,0,0,1.71h.59a.86.86,0,1,0,0-1.71Z"/><path class="cls-3" d="M169.3,50.13h-.59a.86.86,0,1,0,0,1.71h.59a.86.86,0,1,0,0-1.71Z"/><path class="cls-3" d="M134.1,50.13h-.59a.86.86,0,1,0,0,1.71h.59a.86.86,0,1,0,0-1.71Z"/><path class="cls-3" d="M165.78,50.13h-.59a.86.86,0,1,0,0,1.71h.59a.86.86,0,1,0,0-1.71Z"/><path class="cls-3" d="M162.26,50.13h-.59a.86.86,0,1,0,0,1.71h.59a.86.86,0,1,0,0-1.71Z"/><path class="cls-3" d="M148.18,50.13h-.59a.86.86,0,1,0,0,1.71h.59a.86.86,0,1,0,0-1.71Z"/><path class="cls-3" d="M141.14,50.13h-.59a.86.86,0,1,0,0,1.71h.59a.86.86,0,1,0,0-1.71Z"/><path class="cls-3" d="M144.66,50.13h-.59a.86.86,0,1,0,0,1.71h.59a.86.86,0,1,0,0-1.71Z"/><path class="cls-3" d="M127.06,50.13h-.59a.86.86,0,1,0,0,1.71h.59a.86.86,0,1,0,0-1.71Z"/><path class="cls-3" d="M116.5,50.13h-.59a.86.86,0,1,0,0,1.71h.59a.86.86,0,1,0,0-1.71Z"/><path class="cls-3" d="M120,50.13h-.59a.86.86,0,1,0,0,1.71H120a.86.86,0,1,0,0-1.71Z"/><path class="cls-3" d="M123.54,50.13H123a.86.86,0,1,0,0,1.71h.59a.86.86,0,1,0,0-1.71Z"/><path class="cls-3" d="M155.22,50.13h-.59a.86.86,0,1,0,0,1.71h.59a.86.86,0,1,0,0-1.71Z"/><path class="cls-3" d="M158.74,50.13h-.59a.86.86,0,1,0,0,1.71h.59a.86.86,0,1,0,0-1.71Z"/><path class="cls-3" d="M130.58,50.13H130a.86.86,0,1,0,0,1.71h.59a.86.86,0,1,0,0-1.71Z"/><path class="cls-3" d="M151.7,50.13h-.59a.86.86,0,1,0,0,1.71h.59a.86.86,0,1,0,0-1.71Z"/><path class="cls-3" d="M754,58.48a2,2,0,0,0,1.77-1,2,2,0,0,0-.07-2.07l-.18-.27a.68.68,0,0,0-.14-.23l-2.69-4.19V47a.62.62,0,0,0-.62-.62h-3.39V44.14a.62.62,0,0,0-.62-.62h-.45a2.8,2.8,0,0,0-.22-1l4-2.35a.62.62,0,1,0-.63-1.07l-4,2.39a3,3,0,0,0-5.1,2h-.44a.61.61,0,0,0-.62.62v2.23H737.3l-.89-4.91v-.08a.69.69,0,0,0-.07-.29L735,33.7a.62.62,0,0,0-.61-.51h-1.22l-1.53-6.8a.61.61,0,0,0,0-.12,4.82,4.82,0,0,0,.22-.85,4.72,4.72,0,0,0-1.94-4.59.61.61,0,0,0-.49-.1.6.6,0,0,0-.4.28l-4.29,7a.63.63,0,0,0,.24.88,5,5,0,0,0,1.48.49,4.6,4.6,0,0,0,.74.05,4.69,4.69,0,0,0,2.78-.91l.16-.13-.81,4.8h-.46a.63.63,0,0,0-.62.63v2.84H716.26a.62.62,0,0,0-.62.62v3.48h-2.91a.62.62,0,0,0-.62.62v5h-8.63V44.14a.62.62,0,0,0-.62-.62h-.45a3,3,0,0,0-5.09-2l-4-2.39a.62.62,0,0,0-.85.22.61.61,0,0,0,.22.85l4,2.35a3.31,3.31,0,0,0-.22,1H696a.61.61,0,0,0-.62.62v2.23h-8.67a.61.61,0,0,0-.56.35.65.65,0,0,0,.07.66,24.58,24.58,0,0,0,5.9,5.33,2.89,2.89,0,0,0,.07,5.77"/><path class="cls-3" d="M701.17,43.52h-3.54a1.78,1.78,0,0,1,3.54,0Z"/><polygon class="cls-3" points="702.24 46.37 696.57 46.37 696.57 44.76 697.05 44.76 701.75 44.76 702.24 44.76 702.24 46.37"/><rect class="cls-3" x="716.87" y="43.14" width="2.05" height="1.09"/><path class="cls-3" d="M730.57,25.23a3.51,3.51,0,0,1-4,2.92,4.52,4.52,0,0,1-.47-.11l3.53-5.76A3.49,3.49,0,0,1,730.57,25.23Z"/><polygon class="cls-3" points="731.89 33.19 730.53 33.19 731.11 29.75 731.89 33.19"/><path class="cls-3" d="M735,40.76H716.88V37.9h11.93a.62.62,0,0,0,.62-.62V34.44h4.43Z"/><rect class="cls-3" x="723.43" y="43.14" width="2.05" height="1.09"/><rect class="cls-3" x="730" y="43.14" width="2.05" height="1.09"/><path class="cls-3" d="M736,46.37H713.35V42h2.54a.63.63,0,0,0-.26.51v2.34a.62.62,0,0,0,.62.62h3.29a.62.62,0,0,0,.62-.62V42.51a.63.63,0,0,0-.26-.51h2.55a.66.66,0,0,0-.26.51v2.34a.62.62,0,0,0,.62.62h3.29a.62.62,0,0,0,.62-.62V42.51a.63.63,0,0,0-.26-.51H729a.64.64,0,0,0-.27.51v2.34a.62.62,0,0,0,.62.62h3.3a.62.62,0,0,0,.62-.62V42.51A.64.64,0,0,0,733,42h2.22Z"/><path class="cls-3" d="M746.41,43.52h-3.54a1.78,1.78,0,0,1,3.54,0Z"/><polygon class="cls-3" points="747.48 46.37 741.81 46.37 741.81 44.76 742.29 44.76 747 44.76 747.48 44.76 747.48 46.37"/><path class="cls-3" d="M692.48,51.48h59.29l2.07,3.23c-19.07.32-54.45.31-59.1-1.94h0A19.5,19.5,0,0,1,692.48,51.48Z"/><path class="cls-3" d="M692.14,54h2.19c4.14,1.79,25,2.15,41.08,2.15,9.48,0,17.33-.13,19.22-.16l.06.1a.75.75,0,0,1,0,.79.77.77,0,0,1-.68.4h-61.9a1.64,1.64,0,1,1,0-3.28Z"/><path class="cls-3" d="M688,47.61h63.49v2.62H690.77A23.57,23.57,0,0,1,688,47.61Z"/><path class="cls-3" d="M729.4,48.63h6.53a.63.63,0,1,1,0,1.25H729.4a.63.63,0,0,1,0-1.25Z"/><path class="cls-3" d="M712.05,48.63h6.53a.63.63,0,1,1,0,1.25h-6.53a.63.63,0,0,1,0-1.25Z"/><path class="cls-3" d="M726.54,39.25h-.42a.63.63,0,0,1,0-1.25h.42a.63.63,0,0,1,0,1.25Z"/><path class="cls-3" d="M729,39.25h-.41a.63.63,0,0,1,0-1.25H729a.63.63,0,0,1,0,1.25Z"/><path class="cls-3" d="M721.56,39.25h-.41a.63.63,0,0,1,0-1.25h.41a.63.63,0,1,1,0,1.25Z"/><path class="cls-3" d="M719.08,39.25h-.42a.63.63,0,0,1,0-1.25h.42a.63.63,0,0,1,0,1.25Z"/><path class="cls-3" d="M724.05,39.25h-.41a.63.63,0,1,1,0-1.25h.41a.63.63,0,0,1,0,1.25Z"/></g><g id="Calque_2" data-name="Calque 2"><path class="cls-4" d="M418.62,495.81V65h0c-14.78,0-37.53-7.36-37.53-14.25C381.08,57.33,360,65,346.47,65c-18,0-36-7.64-36-14.25,0,6.7-18.39,14.25-36.16,14.25-17.95,0-36.16-7.73-36.16-14.25,0,6.51-18,14.24-35.93,14.25-14.79,0-37.48-7.37-37.48-14.25,0,6.61-19.14,14.42-34.62,14.25-17.94-.2-36-7.64-36-14.25C94.15,57.42,75.75,65,58,65,40,65,21.82,57.24,21.82,50.72c0,6.52-18,14.25-36,14.25V495.81Z"/><path class="cls-4" d="M849.88,495.54V64.7h0c-14.79,0-37.53-7.37-37.53-14.25,0,6.61-21.09,14.25-34.62,14.25-18,0-36-7.64-36-14.25,0,6.7-18.4,14.25-36.17,14.25-17.94,0-36.16-7.73-36.16-14.25,0,6.51-18,14.23-35.93,14.25-14.78,0-37.48-7.37-37.48-14.25,0,6.61-19.13,14.42-34.61,14.25-17.95-.2-36-7.64-36-14.25,0,6.7-18.39,14.25-36.16,14.25-17.95,0-36.16-7.73-36.16-14.25,0,6.52-18,14.25-36,14.25V495.54Z"/></g></svg>