<?xml version="1.0" encoding="utf-8"?>
<!-- Generator: Adobe Illustrator 22.1.0, SVG Export Plug-In . SVG Version: 6.00 Build 0)  -->
<svg version="1.1" id="Calque_1" xmlns="http://www.w3.org/2000/svg" xmlns:xlink="http://www.w3.org/1999/xlink" x="0px" y="0px"
	 viewBox="0 0 841.9 456.3" style="enable-background:new 0 0 841.9 456.3;" xml:space="preserve">
<style type="text/css">
	.st0{fill:#65A7B4;}
	.st1{fill:#308392;}
</style>
<title>Sea</title>
<path class="st0" d="M418.6,88.5V21.6c-3.7,5.8-19.4,11.7-35,11.7c-14.8,0-37.4-7.4-37.4-14.2c0,6.6-19.1,14.4-34.5,14.2
	c-17.9-0.2-35.9-7.6-35.9-14.2c0,6.7-18.4,14.2-36.1,14.2c-17.9,0-36.1-7.7-36.1-14.2c0,6.5-17.9,14.2-35.7,14.2
	c-14.8-0.1-37.2-7.4-37.2-14.2c0,6.6-21,14.2-34.5,14.2c-17.9,0-35.9-7.6-35.9-14.2c0,6.7-18.3,14.2-36.1,14.2
	c-17.9,0-36.1-7.7-36.1-14.2c0,1.4-0.8,2.8-2.3,4.3v65.2H418.6z"/>
<path class="st1" d="M418.6,483.3V52.4l0,0c-14.8,0-37.5-7.4-37.5-14.2c0,6.6-21.1,14.2-34.6,14.2c-18,0-36-7.6-36-14.2
	c0,6.7-18.4,14.2-36.2,14.2c-18,0-36.2-7.7-36.2-14.2c0,6.5-18,14.2-35.9,14.2c-14.8,0-37.5-7.4-37.5-14.2
	c0,6.6-19.1,14.4-34.6,14.2c-17.9-0.2-36-7.6-36-14.2c0,6.7-18.4,14.2-36.2,14.2c-17.9,0-36.2-7.7-36.2-14.2c0,6.5-18,14.2-36,14.2
	v430.8H418.6z"/>
<path class="st0" d="M849.9,88.2V21.3c-3.7,5.8-19.4,11.7-35,11.7c-14.8,0-37.4-7.4-37.4-14.3c0,6.6-19.1,14.4-34.5,14.3
	c-17.9-0.2-35.9-7.6-35.9-14.3c0,6.7-18.3,14.3-36.1,14.3c-17.9,0-36.1-7.7-36.1-14.3c0,6.5-17.8,14.2-35.7,14.2
	c-14.8,0-37.2-7.4-37.2-14.2c0,6.6-21,14.3-34.5,14.3c-17.9,0-35.9-7.6-35.9-14.3c0,6.7-18.4,14.3-36.1,14.3
	c-17.9,0-36.1-7.7-36.1-14.3c-0.2,1.7-1,3.2-2.3,4.3v65.2L849.9,88.2z"/>
<path class="st1" d="M849.9,483V52.1l0,0c-14.8,0-37.5-7.4-37.5-14.2c0,6.6-21.1,14.2-34.6,14.2c-18,0-36-7.6-36-14.2
	c0,6.7-18.4,14.2-36.2,14.2c-17.9,0-36.2-7.7-36.2-14.2c0,6.5-18,14.2-35.9,14.2c-14.8,0-37.5-7.4-37.5-14.2
	c0,6.6-19.1,14.4-34.6,14.2c-18-0.2-36-7.6-36-14.2c0,6.7-18.4,14.2-36.2,14.2c-18,0-36.2-7.7-36.2-14.2c0,6.5-18,14.2-36,14.2V483
	H849.9z"/>
</svg>
