<svg id="Calque_1" data-name="Calque 1" xmlns="http://www.w3.org/2000/svg" viewBox="0 0 841.89 454.83"><defs><style>.cls-1{fill:#65a7b4;}.cls-2{fill:#308392;}</style></defs><title>sea</title><path class="cls-1" d="M418.62,87.06V20.13c-3.73,5.83-19.4,11.72-35,11.73-14.75,0-37.39-7.37-37.39-14.25,0,6.61-19.08,14.43-34.53,14.25-17.9-.19-35.9-7.64-35.9-14.25,0,6.71-18.35,14.25-36.07,14.25-17.9,0-36.07-7.73-36.07-14.25,0,6.5-17.85,14.19-35.69,14.25-14.75-.06-37.25-7.39-37.25-14.25,0,6.61-21,14.25-34.53,14.25-17.9,0-35.9-7.64-35.9-14.25,0,6.71-18.35,14.25-36.07,14.25-17.9,0-36.07-7.73-36.07-14.25a6.28,6.28,0,0,1-2.3,4.27V87.06Z"/><path class="cls-2" d="M418.62,481.81V51h0c-14.78,0-37.53-7.36-37.53-14.25C381.08,43.33,360,51,346.47,51c-18,0-36-7.64-36-14.25,0,6.7-18.39,14.25-36.16,14.25-17.95,0-36.16-7.73-36.16-14.25,0,6.51-18,14.24-35.93,14.25-14.79,0-37.48-7.37-37.48-14.25,0,6.61-19.14,14.42-34.62,14.25-17.94-.2-36-7.64-36-14.25C94.15,43.42,75.75,51,58,51,40,51,21.82,43.24,21.82,36.72c0,6.52-18,14.25-36,14.25V481.81Z"/><path class="cls-1" d="M849.88,86.78V19.86c-3.73,5.83-19.39,11.72-35,11.73-14.75,0-37.39-7.37-37.39-14.25,0,6.61-19.08,14.42-34.52,14.25-17.9-.2-35.9-7.64-35.9-14.25,0,6.7-18.35,14.25-36.07,14.25-17.91,0-36.08-7.73-36.08-14.25,0,6.49-17.85,14.19-35.68,14.25C584.47,31.53,562,24.2,562,17.34c0,6.61-21,14.25-34.53,14.25-17.9,0-35.89-7.64-35.89-14.25,0,6.7-18.35,14.25-36.08,14.25-17.9,0-36.07-7.73-36.07-14.25,0,1.4-.83,2.84-2.3,4.26V86.78Z"/><path class="cls-2" d="M849.88,481.54V50.7h0c-14.79,0-37.53-7.37-37.53-14.25,0,6.61-21.09,14.25-34.62,14.25-18,0-36-7.64-36-14.25,0,6.7-18.4,14.25-36.17,14.25-17.94,0-36.16-7.73-36.16-14.25,0,6.51-18,14.23-35.93,14.25-14.78,0-37.48-7.37-37.48-14.25,0,6.61-19.13,14.42-34.61,14.25-17.95-.2-36-7.64-36-14.25,0,6.7-18.39,14.25-36.16,14.25-17.95,0-36.16-7.73-36.16-14.25,0,6.52-18,14.25-36,14.25V481.54Z"/></svg>