<svg id="Calque_1" data-name="Calque 1" xmlns="http://www.w3.org/2000/svg" viewBox="0 0 841.89 595.28"><defs><style>.cls-1{fill:#65a7b4;}.cls-2{fill:#308392;}</style></defs><title>Sea</title><path class="cls-1" d="M418.62,227.5V160.58c-3.73,5.83-19.4,11.71-35,11.73-14.75,0-37.39-7.37-37.39-14.25,0,6.61-19.08,14.42-34.53,14.25-17.9-.2-35.9-7.64-35.9-14.25,0,6.7-18.35,14.25-36.07,14.25-17.9,0-36.07-7.73-36.07-14.25,0,6.49-17.85,14.19-35.69,14.25-14.75-.06-37.25-7.39-37.25-14.25,0,6.61-21,14.25-34.53,14.25-17.9,0-35.9-7.64-35.9-14.25,0,6.7-18.35,14.25-36.07,14.25-17.9,0-36.07-7.73-36.07-14.25,0,1.39-.83,2.84-2.3,4.26V227.5Z"/><path class="cls-2" d="M418.62,622.26V191.42h0c-14.78,0-37.53-7.37-37.53-14.25,0,6.61-21.08,14.25-34.61,14.25-18,0-36-7.64-36-14.25,0,6.7-18.39,14.25-36.16,14.25-17.95,0-36.16-7.74-36.16-14.25,0,6.51-18,14.23-35.93,14.25-14.79,0-37.48-7.37-37.48-14.25,0,6.61-19.14,14.42-34.62,14.25-17.94-.2-36-7.64-36-14.25,0,6.7-18.4,14.25-36.17,14.25-17.94,0-36.16-7.74-36.16-14.25,0,6.51-18,14.25-36,14.25V622.26Z"/><path class="cls-1" d="M849.88,227.23V160.31c-3.73,5.82-19.39,11.71-35,11.73-14.75,0-37.39-7.38-37.39-14.26,0,6.62-19.08,14.43-34.52,14.26-17.9-.2-35.9-7.64-35.9-14.26,0,6.71-18.35,14.26-36.07,14.26-17.91,0-36.08-7.74-36.08-14.26,0,6.5-17.85,14.19-35.68,14.25C584.47,172,562,164.64,562,157.78c0,6.62-21,14.26-34.53,14.26-17.9,0-35.89-7.64-35.89-14.26,0,6.71-18.35,14.26-36.08,14.26-17.9,0-36.07-7.74-36.07-14.26a6.28,6.28,0,0,1-2.3,4.27v65.18Z"/><path class="cls-2" d="M849.88,622V191.14h0c-14.79,0-37.53-7.36-37.53-14.25,0,6.61-21.09,14.25-34.62,14.25-18,0-36-7.64-36-14.25,0,6.71-18.4,14.25-36.17,14.25-17.94,0-36.16-7.73-36.16-14.25,0,6.52-18,14.24-35.93,14.25-14.78,0-37.48-7.37-37.48-14.25,0,6.61-19.13,14.43-34.61,14.25-17.95-.2-36-7.64-36-14.25,0,6.71-18.39,14.25-36.16,14.25-17.95,0-36.16-7.73-36.16-14.25,0,6.52-18,14.25-36,14.25V622Z"/></svg>